<svg xmlns="http://www.w3.org/2000/svg" xmlns:xlink="http://www.w3.org/1999/xlink" style="display: none;">
    <symbol id="chevron" viewBox="0 0 21 21">
        <path d="m8.5.5-4 4-4-4" fill="none" stroke="currentColor" transform="translate(6 7)" />
    </symbol>

    <symbol id="search" viewBox="0 0 21 21">
        <g fill="none" fill-rule="evenodd" stroke="currentColor" stroke-linecap="round" stroke-linejoin="round">
            <circle cx="8.5" cy="8.5" r="5" />
            <path d="m17.571 17.5-5.571-5.5" />
        </g>
    </symbol>

    <symbol id="logo" viewBox="0 0 33 38" >
        <path d="M3.02505 3.77438C-2.49719 17.0014 5.02506 44.2743 5.02505 35.2742C5.02505 -24.2257 43.5262 8.77434 8.02586 23.2744"
            stroke="currentColor"
            stroke-width="1.2"
            fill="none"
        />
        <path d="M22 12V19M22 37.5V19M22 19C25 14 28.9999 15 24 22.5C23.1354 23.7969 25 15.5 32 15"
            stroke="currentColor"
            stroke-width="1.2"
            fill="none"
        />
    </symbol>

    <symbol id="text-logo" viewBox="0 0 160 40">
        <path
          fill="#393B44"
          fill-rule="evenodd"
          d="M39.995 32.563h-1.043l-.027-.019a3.074 3.074 0 0 0-.11-.074l-.045-.027a2.551 2.551 0 0 0-1.303-.356c-.482 0-.955.147-1.355.395-.668.41-1.136 1.1-1.098 1.862.04.824.515 1.56 1.24 1.953.004.004.01.006.015.009.042.023.086.045.13.065l.033.016c.075.037.151.072.224.098.24.09.515.135.822.135.407 0 .8-.098 1.167-.294.37-.197.683-.47.929-.813l.322-.45v1.198l-.046.047c-.33.335-.696.582-1.09.736-.391.15-.841.225-1.334.225a3.191 3.191 0 0 1-1.569-.408 3.24 3.24 0 0 1-1.163-1.085 2.646 2.646 0 0 1-.437-1.448c0-.549.144-1.052.43-1.492.286-.44.683-.789 1.177-1.035a3.672 3.672 0 0 1 1.649-.37c.927 0 1.725.34 2.374 1.012h.002l.111.115-.005.005Zm-8.343 4.34a3.327 3.327 0 0 1-1.603.395 3.305 3.305 0 0 1-1.577-.407 3.098 3.098 0 0 1-.832-.637v3.253h-.757v-7.918h.757v.904a2.95 2.95 0 0 1 .798-.618 3.347 3.347 0 0 1 1.611-.415 3.38 3.38 0 0 1 1.603.396c.484.263.874.62 1.158 1.061.285.445.43.936.43 1.462 0 .526-.146 1.017-.43 1.462-.28.44-.68.805-1.158 1.062Zm.503-3.642a2.463 2.463 0 0 0-2.095-1.147l.002-.002c-.43 0-.837.105-1.208.315a2.546 2.546 0 0 0-.903.844 2.043 2.043 0 0 0-.336 1.121c0 .398.113.771.336 1.115.223.345.53.626.908.833.376.206.785.31 1.216.31.43 0 .834-.104 1.202-.31.37-.206.667-.486.884-.83.214-.343.327-.733.325-1.128 0-.397-.11-.774-.331-1.121Zm-5.273 6.246h.001-.001Zm-5.093-.002.953-2.352-2.422-5.56h.846l1.6 3.75c.07.173.14.354.21.541l.165.445.165-.45c.07-.191.141-.374.212-.547l1.481-3.74h.823l-3.233 7.913h-.8Zm-3.378-6.94a2.418 2.418 0 0 0-.495-.28 2.552 2.552 0 0 0-.991-.197c-.48 0-.954.147-1.354.395-.669.41-1.136 1.1-1.099 1.863.04.823.516 1.56 1.24 1.953l.016.008c.042.023.086.045.13.066l.033.016c.075.037.15.071.224.098.239.09.515.135.821.135.407 0 .8-.1 1.168-.294.37-.197.682-.47.929-.813l.321-.452v1.2l-.046.046a3.12 3.12 0 0 1-1.09.736c-.39.15-.84.226-1.334.226a3.19 3.19 0 0 1-1.568-.41 3.24 3.24 0 0 1-1.163-1.083 2.646 2.646 0 0 1-.437-1.449c0-.548.143-1.052.43-1.491.286-.44.682-.79 1.177-1.036a3.67 3.67 0 0 1 1.649-.37c.927 0 1.724.341 2.374 1.013h.002l.11.115-.004.004h-1.043ZM9.57 36.517c.24.09.517.135.822.135.407 0 .799-.099 1.167-.294.372-.195.683-.47.93-.813l.321-.45v1.198l-.046.047c-.33.335-.695.583-1.09.736-.39.15-.841.225-1.334.225l.002.002c-.554 0-1.08-.138-1.569-.409a3.223 3.223 0 0 1-1.163-1.084 2.646 2.646 0 0 1-.437-1.449c0-.548.145-1.051.431-1.49.286-.44.681-.789 1.176-1.036a3.67 3.67 0 0 1 1.65-.37c.927 0 1.724.34 2.373 1.012l.111.115-3.955 3.6c.21.144.416.254.611.325Zm2.335-3.923a2.572 2.572 0 0 0-.616-.344 2.52 2.52 0 0 0-.871-.134v.001c-.483 0-.918.097-1.288.289-.37.192-.668.456-.879.787a2.07 2.07 0 0 0-.318 1.132c0 .552.174 1.017.53 1.422l3.442-3.153ZM4.77 36.903a3.325 3.325 0 0 1-1.603.395 3.306 3.306 0 0 1-1.577-.406 3.095 3.095 0 0 1-.832-.638v3.254H.001v-7.919h.756v.904c.215-.24.483-.446.799-.618a3.348 3.348 0 0 1 1.61-.414c.563 0 1.118.133 1.604.396.483.263.874.62 1.158 1.06.285.446.429.936.429 1.463 0 .526-.145 1.017-.43 1.462-.28.44-.68.805-1.157 1.061Zm.503-3.642a2.463 2.463 0 0 0-.89-.837 2.463 2.463 0 0 0-1.205-.31l.001-.002c-.429 0-.836.106-1.207.316a2.544 2.544 0 0 0-.903.844 2.042 2.042 0 0 0-.336 1.12c0 .398.112.772.336 1.116.223.344.529.625.908.833.376.205.785.31 1.216.31.43 0 .834-.105 1.202-.31.37-.206.667-.487.883-.831.215-.343.328-.732.326-1.127 0-.398-.111-.775-.331-1.122ZM0 39.507v.001ZM158.336 19.499V9.61l-8.599 9.89h-1.373V7.01h1.664v9.912l8.567-9.912H160v12.49h-1.664ZM149.233.847l1.799-.345 3.197 2.625 3.285-2.625 1.831.345-5.039 4.287-5.073-4.287Zm-5.689 18.622V6.939h1.581v12.532h-1.581v-.002Zm-7.549.004h-2.915V6.94h1.581v4.717h1.334c1.45 0 3.142.35 3.981 1.05.84.699 1.259 1.647 1.259 2.848 0 1.201-.419 2.173-1.259 2.87-.839.7-2.534 1.05-3.981 1.05Zm2.87-5.849c-.561-.462-1.883-.695-2.87-.695h-1.334V18.193h1.334c.987 0 2.311-.231 2.87-.696.559-.462.839-1.111.839-1.947 0-.836-.28-1.462-.839-1.926Zm-10.718.362h-7.857V19.5h-1.692V7.01h1.692v5.515h7.857V7.009h1.691v12.49h-1.691v-5.513Zm-14.707 0h-7.857V19.5h-1.691V7.01h1.691v5.515h7.857V7.009h1.696v12.49h-1.696v-5.513Zm-14.367 3.476a6.345 6.345 0 0 1-1.77 1.4 7.471 7.471 0 0 1-3.617.927v-.002a7.471 7.471 0 0 1-3.57-.885c-1.094-.588-1.972-1.39-2.606-2.392a5.954 5.954 0 0 1-.96-3.257c0-1.158.325-2.254.96-3.258a6.986 6.986 0 0 1 2.606-2.392 7.449 7.449 0 0 1 3.57-.885c1.274 0 2.535.32 3.687.952.685.378 1.255.824 1.7 1.34V7.013h1.692v12.49h-1.692v-2.04Zm-.682-6.712a5.512 5.512 0 0 0-1.988-1.873 5.477 5.477 0 0 0-2.691-.693l.002-.004c-.96 0-1.87.235-2.7.705a5.685 5.685 0 0 0-2.02 1.889c-.499.776-.751 1.62-.751 2.508 0 .89.252 1.725.751 2.495a5.619 5.619 0 0 0 2.03 1.863c.842.46 1.756.693 2.72.693.963 0 1.865-.233 2.687-.693a5.412 5.412 0 0 0 1.977-1.859c.48-.77.724-1.616.724-2.523 0-.906-.249-1.732-.741-2.508Zm-16.705 8.148c-1.086.589-2.291.885-3.585.885-1.22 0-2.404-.308-3.526-.91a6.911 6.911 0 0 1-1.86-1.427v7.28h-1.693V7.008h1.692V9.03c.48-.537 1.079-.997 1.785-1.383a7.486 7.486 0 0 1 3.602-.926c1.257 0 2.5.299 3.585.885 1.081.589 1.955 1.387 2.589 2.375.638.995.96 2.093.96 3.27a5.981 5.981 0 0 1-.96 3.272 6.954 6.954 0 0 1-2.59 2.374Zm1.124-8.148a5.515 5.515 0 0 0-1.987-1.873 5.505 5.505 0 0 0-2.696-.693l.002-.004c-.96 0-1.87.235-2.7.705a5.686 5.686 0 0 0-2.02 1.889 4.577 4.577 0 0 0-.75 2.508c0 .89.251 1.725.75 2.495a5.585 5.585 0 0 0 2.03 1.863c.842.46 1.757.693 2.72.693.964 0 1.865-.233 2.688-.693a5.413 5.413 0 0 0 1.976-1.859 4.71 4.71 0 0 0 .728-2.523c0-.888-.248-1.732-.74-2.508ZM71.02 24.725h.002v.002l-.002-.002Zm-5.445-5.712c-1.076.598-2.311.9-3.68.9v.003c-1.353 0-2.593-.313-3.691-.93-1.094-.615-1.96-1.443-2.574-2.462a6.307 6.307 0 0 1-.93-3.327c0-1.19.32-2.28.945-3.288a6.873 6.873 0 0 1 2.578-2.419c1.086-.598 2.315-.9 3.645-.9s2.53.302 3.616.9c1.082.595 1.95 1.413 2.566 2.422.619 1.01.93 2.118.93 3.29 0 1.17-.305 2.36-.898 3.375a6.569 6.569 0 0 1-2.507 2.436Zm.993-8.364a5.324 5.324 0 0 0-1.96-1.906 5.587 5.587 0 0 0-2.742-.697l.002.002c-.996 0-1.925.239-2.756.715a5.488 5.488 0 0 0-1.987 1.92 4.92 4.92 0 0 0-.728 2.591c0 .925.244 1.794.728 2.578a5.442 5.442 0 0 0 1.987 1.895c.83.468 1.767.705 2.786.705 1.019 0 1.92-.236 2.738-.705a5.214 5.214 0 0 0 1.945-1.893 5.072 5.072 0 0 0 .704-2.61c0-.941-.24-1.8-.717-2.595Zm-17.953 9.363h-1.692l-.002.002V8.097H42.05v-1.58h11.442v1.58h-4.876v11.915ZM37.662 9.205a6.742 6.742 0 0 0-.308-.208l-.101-.06a5.398 5.398 0 0 0-.698-.356h-.002a5.695 5.695 0 0 0-2.214-.44 5.797 5.797 0 0 0-3.028.882c-1.495.917-2.54 2.464-2.456 4.168a5.274 5.274 0 0 0 2.773 4.37c.01.008.023.014.034.02.094.051.192.1.291.146.026.012.047.024.073.035.17.083.338.16.5.22.536.201 1.153.302 1.838.302.91 0 1.788-.221 2.61-.658a6.013 6.013 0 0 0 2.078-1.82l.72-1.009v2.683l-.104.104c-.736.751-1.554 1.302-2.437 1.648-.873.334-1.88.504-2.982.504a7.13 7.13 0 0 1-3.508-.915 7.244 7.244 0 0 1-2.602-2.426c-.648-1.009-.976-2.101-.976-3.241 0-1.227.321-2.353.963-3.336.639-.984 1.525-1.767 2.63-2.317 1.1-.548 2.34-.828 3.687-.828 2.073 0 3.857.762 5.309 2.266h.004l.249.256-.011.01h-2.332ZM17.89 18.053c.535.2 1.154.302 1.837.302.91 0 1.786-.221 2.61-.658a5.973 5.973 0 0 0 2.078-1.82l.719-1.008v2.682l-.103.105c-.736.75-1.554 1.303-2.437 1.647-.873.334-1.882.504-2.982.504l.004.004a7.131 7.131 0 0 1-3.508-.915c-1.073-.595-1.968-1.68-2.602-2.425-.648-1.01-.976-2.102-.976-3.242 0-1.227.323-2.353.964-3.336.638-.984 1.522-1.764 2.63-2.318 1.102-.549 2.342-.827 3.687-.827 2.075 0 3.856.762 5.308 2.266l.248.256-8.843 8.056c.469.32.929.567 1.366.727Zm5.22-8.779a5.747 5.747 0 0 0-1.376-.77c-.536-.2-1.193-.298-1.95-.298v.002c-1.078 0-2.05.217-2.879.646-.829.428-1.493 1.019-1.964 1.76-.473.74-.713 1.594-.713 2.534 0 1.235.39 2.275 1.184 3.18l7.698-7.054ZM4.758 11.641H1.636v8.067H0V.5h4.758c4.015 0 7.02 2.03 7.02 5.57 0 3.54-3.005 5.57-7.02 5.57Zm0-9.713H1.636v8.285h3.122c2.677 0 5.353-1.235 5.353-4.143 0-2.908-2.676-4.142-5.353-4.142Z"
          clip-rule="evenodd"
        />
    </symbol>

    <symbol id="plate" viewBox="0 0 18 14">
        <path fill="#393B44" d="M0 9.637a2.637 2.637 0 0 0 2.637 2.636h.527v1.055h11.637v-1.055h.527c1.456 0 2.672-1.18 2.672-2.636v-.528H0v.528Zm0-4.219a2.637 2.637 0 0 0 2.637 2.637h12.691c1.456 0 2.672-1.18 2.672-2.637v-.527H0v.527Zm0-4.219a2.637 2.637 0 0 0 2.637 2.637h12.691c1.456 0 2.672-1.18 2.672-2.637V.672H0v.527Z"/>
    </symbol>

    <symbol id="network" viewBox="0 0 18 18">
        <path fill="#393B44" fill-rule="evenodd" d="M15.09.352h2.207c.194 0 .351.157.351.351v16.594a.352.352 0 0 1-.351.351h-2.208a.352.352 0 0 1-.351-.351V.703c0-.194.158-.351.351-.351ZM.702 10.772h2.208c.193 0 .351.157.351.351v6.174a.352.352 0 0 1-.351.351H.703a.352.352 0 0 1-.351-.351v-6.174c0-.194.157-.351.351-.351ZM5.5 7.297h2.207c.194 0 .352.158.352.352v9.647a.352.352 0 0 1-.352.351H5.499a.352.352 0 0 1-.352-.351V7.65c0-.194.158-.352.352-.352Zm4.795-3.473h2.207c.194 0 .352.158.352.351v13.12a.352.352 0 0 1-.352.352h-2.207a.352.352 0 0 1-.352-.351V4.177c0-.194.158-.352.352-.352Z" clip-rule="evenodd"/>
    </symbol>

    <symbol id="time" viewBox="0 0 18 18">
        <g fill="#393B44" clip-path="url(#a)"><path d="m12.207 10.59-2.51-1.883V4.873a.697.697 0 1 0-1.394 0v4.183c0 .22.103.426.279.557l2.788 2.092a.691.691 0 0 0 .976-.14.696.696 0 0 0-.14-.976Z"/><path d="M9 0C4.037 0 0 4.037 0 9s4.037 9 9 9 9-4.037 9-9-4.037-9-9-9Zm0 16.606c-4.193 0-7.606-3.413-7.606-7.606S4.807 1.394 9 1.394c4.194 0 7.606 3.413 7.606 7.606S13.193 16.606 9 16.606Z"/></g><defs><clipPath id="a"><path fill="#fff" d="M0 0h18v18H0z"/></clipPath></defs>
    </symbol>
</svg>
